<svg xmlns="http://www.w3.org/2000/svg"
    xmlns:xlink="http://www.w3.org/1999/xlink" aria-hidden="true" focusable="false" width="1em" height="1em" style="-ms-transform: rotate(360deg); -webkit-transform: rotate(360deg); transform: rotate(360deg);" preserveAspectRatio="xMidYMid meet" viewBox="0 0 24 24">
    <path d="M12 2a2 2 0 0 0-2 2a2 2 0 0 0 0 .29C7.12 5.14 5 7.82 5 11v6l-2 2v1h18v-1l-2-2v-6c0-3.18-2.12-5.86-5-6.71A2 2 0 0 0 14 4a2 2 0 0 0-2-2m0 4a5 5 0 0 1 5 5v7H7v-7a5 5 0 0 1 5-5m9 1v6h2V7h-2m0 8v2h2v-2h-2m-11 6a2 2 0 0 0 2 2a2 2 0 0 0 2-2h-4z" fill="white"/>

</svg>