<svg xmlns="http://www.w3.org/2000/svg" xmlns:xlink="http://www.w3.org/1999/xlink" width="15" height="15" viewBox="0 0 15 15">
  <defs>
    <clipPath id="clip-path">
      <path id="Path_37" data-name="Path 37" d="M7.5,0A7.5,7.5,0,0,1,0-7.5,7.5,7.5,0,0,1,7.5-15,7.5,7.5,0,0,1,15-7.5,7.5,7.5,0,0,1,7.5,0Zm3.976-10.391a1.072,1.072,0,0,0-1.515,0L6.444-6.866,5.039-8.274a1.076,1.076,0,0,0-1.515,0,1.077,1.077,0,0,0,0,1.519L5.684-4.59a1.072,1.072,0,0,0,1.515,0l4.276-4.281a1.073,1.073,0,0,0,0-1.519Z" fill="#c41b1a"/>
    </clipPath>
    <clipPath id="clip-path-2">
      <path id="Path_36" data-name="Path 36" d="M-872,648H528V-252H-872Z" fill="#c41b1a"/>
    </clipPath>
  </defs>
  <g id="Group_37" data-name="Group 37" transform="translate(0 15)">
    <g id="Group_36" data-name="Group 36" clip-path="url(#clip-path)">
      <g id="Group_35" data-name="Group 35" clip-path="url(#clip-path-2)">
        <path id="Path_35" data-name="Path 35" d="M-5-20H20V5H-5Z" fill="#c41b1a"/>
      </g>
    </g>
  </g>
</svg>
