<svg xmlns="http://www.w3.org/2000/svg" xmlns:xlink="http://www.w3.org/1999/xlink" width="14" height="17" viewBox="0 0 14 17">
  <defs>
    <clipPath id="clip-path">
      <path id="Path_19" data-name="Path 19" d="M.885-15.059V-2.216L2.624-.637h8.964L13.21-2.216V-11A12.887,12.887,0,0,1,9.6-11c-1.193-.246-1.193-.632-1.488-1.92a5.93,5.93,0,0,1,0-2.63l-.425-.583H4l-1.709.243-1.409.65Z" fill="none" clip-rule="evenodd"/>
    </clipPath>
    <clipPath id="clip-path-2">
      <path id="Path_18" data-name="Path 18" d="M-1316,581H84V-319H-1316Z" fill="none"/>
    </clipPath>
    <clipPath id="clip-path-3">
      <path id="Path_22" data-name="Path 22" d="M13.615-12.464,9.573-16.606A1.3,1.3,0,0,0,8.645-17H2.625A2.655,2.655,0,0,0,0-14.316V-2.684A2.655,2.655,0,0,0,2.625,0h8.75A2.655,2.655,0,0,0,14-2.684v-8.831A1.358,1.358,0,0,0,13.615-12.464ZM8.75-15.551l3.828,3.919H10.063A1.328,1.328,0,0,1,8.75-12.974ZM11.375-1.342H2.625A1.328,1.328,0,0,1,1.313-2.684V-14.316a1.328,1.328,0,0,1,1.313-1.342H7.438v2.684a2.655,2.655,0,0,0,2.625,2.684h2.625v7.605A1.328,1.328,0,0,1,11.375-1.342Z" fill="none"/>
    </clipPath>
    <clipPath id="clip-path-5">
      <path id="Path_25" data-name="Path 25" d="M3.517-9H5.483A.537.537,0,0,0,6-9.5a.537.537,0,0,0-.517-.5H3.517A.537.537,0,0,0,3-9.5a.537.537,0,0,0,.517.5Z" fill="none"/>
    </clipPath>
    <clipPath id="clip-path-7">
      <path id="Path_28" data-name="Path 28" d="M3.593-6h6.659a.767.767,0,0,0,.644-.23.4.4,0,0,0,0-.533A.767.767,0,0,0,10.253-7H3.593A.581.581,0,0,0,3-6.5a.581.581,0,0,0,.593.5Z" fill="none"/>
    </clipPath>
    <clipPath id="clip-path-9">
      <path id="Path_31" data-name="Path 31" d="M10.267-4H3.733a.744.744,0,0,0-.632.23.4.4,0,0,0,0,.533A.744.744,0,0,0,3.733-3h6.533a.745.745,0,0,0,.632-.23.4.4,0,0,0,0-.533A.745.745,0,0,0,10.267-4Z" fill="none"/>
    </clipPath>
  </defs>
  <g id="Group_31" data-name="Group 31" transform="translate(0 17)">
    <g id="Group_22" data-name="Group 22" clip-path="url(#clip-path)">
      <g id="Group_21" data-name="Group 21" clip-path="url(#clip-path-2)">
        <path id="Path_17" data-name="Path 17" d="M-4.115-21.133H18.21v25.5H-4.115Z" fill="#f4d6d6"/>
      </g>
    </g>
    <g id="Group_24" data-name="Group 24" clip-path="url(#clip-path-3)">
      <g id="Group_23" data-name="Group 23" clip-path="url(#clip-path-2)">
        <path id="Path_20" data-name="Path 20" d="M-5-22H19V5H-5Z" fill="#e19090"/>
      </g>
    </g>
    <g id="Group_26" data-name="Group 26" clip-path="url(#clip-path-5)">
      <g id="Group_25" data-name="Group 25" clip-path="url(#clip-path-2)">
        <path id="Path_23" data-name="Path 23" d="M-2-15H11V-4H-2Z" fill="#e19090"/>
      </g>
    </g>
    <g id="Group_28" data-name="Group 28" clip-path="url(#clip-path-7)">
      <g id="Group_27" data-name="Group 27" clip-path="url(#clip-path-2)">
        <path id="Path_26" data-name="Path 26" d="M-2-12H16V-1H-2Z" fill="#e19090"/>
      </g>
    </g>
    <g id="Group_30" data-name="Group 30" clip-path="url(#clip-path-9)">
      <g id="Group_29" data-name="Group 29" clip-path="url(#clip-path-2)">
        <path id="Path_29" data-name="Path 29" d="M-2-9H16V2H-2Z" fill="#e19090"/>
      </g>
    </g>
  </g>
</svg>
