<svg xmlns="http://www.w3.org/2000/svg" xmlns:xlink="http://www.w3.org/1999/xlink" width="13" height="16.5" viewBox="0 0 13 16.5">
  <defs>
    <clipPath id="clip-path">
      <path id="Path_13" data-name="Path 13" d="M18.47-62.714a.5.5,0,0,1,.686.171l2.575,4.286a.5.5,0,0,1-.171.686.5.5,0,0,1-.686-.171L18.3-62.028A.5.5,0,0,1,18.47-62.714Z" fill="none" clip-rule="evenodd"/>
    </clipPath>
    <clipPath id="clip-path-2">
      <rect id="Rectangle_1" data-name="Rectangle 1" width="32" height="13" transform="translate(4 -67)" fill="none"/>
    </clipPath>
    <clipPath id="clip-path-4">
      <path id="Path_9" data-name="Path 9" d="M18-57h4v-6H18Z" fill="none"/>
    </clipPath>
    <clipPath id="clip-path-6">
      <path id="Path_16" data-name="Path 16" d="M15.5-61A6.5,6.5,0,0,0,22-67.5,6.5,6.5,0,0,0,15.5-74,6.5,6.5,0,0,0,9-67.5,6.5,6.5,0,0,0,15.5-61Z" fill="none" clip-rule="evenodd"/>
    </clipPath>
    <clipPath id="clip-path-7">
      <rect id="Rectangle_2" data-name="Rectangle 2" width="33" height="33" transform="translate(-1 -84)" fill="none"/>
    </clipPath>
    <clipPath id="clip-path-8">
      <path id="Path_15" data-name="Path 15" d="M9-61H22V-74H9Z" fill="none"/>
    </clipPath>
  </defs>
  <g id="Group_20" data-name="Group 20" transform="translate(-1102 -369)">
    <g id="Group_11" data-name="Group 11" transform="translate(1093 443)" clip-path="url(#clip-path)">
      <g id="Group_10" data-name="Group 10" style="isolation: isolate">
        <g id="Group_9" data-name="Group 9" clip-path="url(#clip-path-2)">
          <g id="Group_6" data-name="Group 6" clip-path="url(#clip-path)">
            <g id="Group_5" data-name="Group 5" clip-path="url(#clip-path-4)">
              <path id="Path_8" data-name="Path 8" d="M18.47-62.714a.5.5,0,0,1,.686.171l2.575,4.286a.5.5,0,0,1-.171.686.5.5,0,0,1-.686-.171L18.3-62.028A.5.5,0,0,1,18.47-62.714Z" fill="#d7d7d7"/>
            </g>
          </g>
          <g id="Group_8" data-name="Group 8" clip-path="url(#clip-path-4)">
            <g id="Group_7" data-name="Group 7" transform="translate(18.041 -62.457) rotate(-31)">
              <path id="Path_11" data-name="Path 11" d="M.5,0A.5.5,0,0,1,1,.5v5a.5.5,0,0,1-1,0V.5A.5.5,0,0,1,.5,0Z" fill="none" stroke="#e7d9d9" stroke-width="2"/>
            </g>
          </g>
        </g>
      </g>
    </g>
    <g id="Group_16" data-name="Group 16" transform="translate(1093 443)" clip-path="url(#clip-path-6)">
      <g id="Group_15" data-name="Group 15" style="isolation: isolate">
        <g id="Group_14" data-name="Group 14" clip-path="url(#clip-path-7)">
          <g id="Group_13" data-name="Group 13" clip-path="url(#clip-path-8)">
            <g id="Group_12" data-name="Group 12" transform="translate(9 -74)">
              <path id="Path_14" data-name="Path 14" d="M6.5,13A6.5,6.5,0,1,0,0,6.5,6.5,6.5,0,0,0,6.5,13Z" fill="none" stroke="#e7d9d9" stroke-width="2"/>
            </g>
          </g>
        </g>
      </g>
    </g>
  </g>
</svg>
